  0
SECTION
  2
HEADER
  9
$ACADVER
  1
AC1014
  9
$ACADMAINTVER
 70
     0
  9
$DWGCODEPAGE
  3
ANSI_1252
  9
$INSBASE
 10
0.0
 20
0.0
 30
0.0
  9
$EXTMIN
 10
-2.071068
 20
-2.071068
 30
-514.324699
  9
$EXTMAX
 10
222.071068
 20
147.071068
 30
600.0
  9
$LIMMIN
 10
0.0
 20
0.0
  9
$LIMMAX
 10
250.0
 20
250.0
  9
$ORTHOMODE
 70
     0
  9
$REGENMODE
 70
     1
  9
$FILLMODE
 70
     1
  9
$QTEXTMODE
 70
     0
  9
$MIRRTEXT
 70
     1
  9
$DRAGMODE
 70
     2
  9
$LTSCALE
 40
1.0
  9
$OSMODE
 70
     0
  9
$ATTMODE
 70
     1
  9
$TEXTSIZE
 40
2.5
  9
$TRACEWID
 40
1.0
  9
$TEXTSTYLE
  7
STANDARD
  9
$CLAYER
  8
0
  9
$CELTYPE
  6
BYLAYER
  9
$CECOLOR
 62
   256
  9
$CELTSCALE
 40
1.0
  9
$DELOBJ
 70
     1
  9
$DISPSILH
 70
     0
  9
$DIMSCALE
 40
1.0
  9
$DIMASZ
 40
2.5
  9
$DIMEXO
 40
0.625
  9
$DIMDLI
 40
3.75
  9
$DIMRND
 40
0.0
  9
$DIMDLE
 40
0.0
  9
$DIMEXE
 40
1.25
  9
$DIMTP
 40
0.0
  9
$DIMTM
 40
0.0
  9
$DIMTXT
 40
2.5
  9
$DIMCEN
 40
2.5
  9
$DIMTSZ
 40
0.0
  9
$DIMTOL
 70
     0
  9
$DIMLIM
 70
     0
  9
$DIMTIH
 70
     0
  9
$DIMTOH
 70
     0
  9
$DIMSE1
 70
     0
  9
$DIMSE2
 70
     0
  9
$DIMTAD
 70
     1
  9
$DIMZIN
 70
     8
  9
$DIMBLK
  1

  9
$DIMASO
 70
     1
  9
$DIMSHO
 70
     1
  9
$DIMPOST
  1

  9
$DIMAPOST
  1

  9
$DIMALT
 70
     0
  9
$DIMALTD
 70
     4
  9
$DIMALTF
 40
0.0394
  9
$DIMLFAC
 40
1.0
  9
$DIMTOFL
 70
     1
  9
$DIMTVP
 40
0.0
  9
$DIMTIX
 70
     0
  9
$DIMSOXD
 70
     0
  9
$DIMSAH
 70
     0
  9
$DIMBLK1
  1

  9
$DIMBLK2
  1

  9
$DIMSTYLE
  2
STANDARD
  9
$DIMCLRD
 70
     0
  9
$DIMCLRE
 70
     0
  9
$DIMCLRT
 70
     0
  9
$DIMTFAC
 40
1.0
  9
$DIMGAP
 40
0.625
  9
$DIMJUST
 70
     0
  9
$DIMSD1
 70
     0
  9
$DIMSD2
 70
     0
  9
$DIMTOLJ
 70
     1
  9
$DIMTZIN
 70
     0
  9
$DIMALTZ
 70
     0
  9
$DIMALTTZ
 70
     0
  9
$DIMFIT
 70
     3
  9
$DIMUPT
 70
     0
  9
$DIMUNIT
 70
     8
  9
$DIMDEC
 70
     4
  9
$DIMTDEC
 70
     4
  9
$DIMALTU
 70
     8
  9
$DIMALTTD
 70
     4
  9
$DIMTXSTY
  7
STANDARD
  9
$DIMAUNIT
 70
     0
  9
$LUNITS
 70
     2
  9
$LUPREC
 70
     4
  9
$SKETCHINC
 40
1.0
  9
$FILLETRAD
 40
4.0
  9
$AUNITS
 70
     0
  9
$AUPREC
 70
     0
  9
$MENU
  1
acad
  9
$ELEVATION
 40
0.0
  9
$PELEVATION
 40
0.0
  9
$THICKNESS
 40
0.0
  9
$LIMCHECK
 70
     0
  9
$BLIPMODE
 70
     0
  9
$CHAMFERA
 40
10.0
  9
$CHAMFERB
 40
10.0
  9
$CHAMFERC
 40
20.0
  9
$CHAMFERD
 40
0.0
  9
$SKPOLY
 70
     0
  9
$TDCREATE
 40
2455361.576279861
  9
$TDUPDATE
 40
2455365.923194259
  9
$TDINDWG
 40
0.8286994676
  9
$TDUSRTIMER
 40
0.8286994676
  9
$USRTIMER
 70
     1
  9
$ANGBASE
 50
0.0
  9
$ANGDIR
 70
     0
  9
$PDMODE
 70
     0
  9
$PDSIZE
 40
0.0
  9
$PLINEWID
 40
0.0
  9
$COORDS
 70
     1
  9
$SPLFRAME
 70
     0
  9
$SPLINETYPE
 70
     6
  9
$SPLINESEGS
 70
     8
  9
$ATTDIA
 70
     0
  9
$ATTREQ
 70
     1
  9
$HANDLING
 70
     1
  9
$HANDSEED
  5
1042
  9
$SURFTAB1
 70
     6
  9
$SURFTAB2
 70
     6
  9
$SURFTYPE
 70
     6
  9
$SURFU
 70
     6
  9
$SURFV
 70
     6
  9
$UCSNAME
  2

  9
$UCSORG
 10
0.0
 20
0.0
 30
0.0
  9
$UCSXDIR
 10
1.0
 20
0.0
 30
0.0
  9
$UCSYDIR
 10
0.0
 20
1.0
 30
0.0
  9
$PUCSNAME
  2

  9
$PUCSORG
 10
0.0
 20
0.0
 30
0.0
  9
$PUCSXDIR
 10
1.0
 20
0.0
 30
0.0
  9
$PUCSYDIR
 10
0.0
 20
1.0
 30
0.0
  9
$USERI1
 70
     0
  9
$USERI2
 70
     0
  9
$USERI3
 70
     0
  9
$USERI4
 70
     0
  9
$USERI5
 70
     0
  9
$USERR1
 40
0.0
  9
$USERR2
 40
0.0
  9
$USERR3
 40
0.0
  9
$USERR4
 40
0.0
  9
$USERR5
 40
0.0
  9
$WORLDVIEW
 70
     1
  9
$SHADEDGE
 70
     3
  9
$SHADEDIF
 70
    70
  9
$TILEMODE
 70
     1
  9
$MAXACTVP
 70
    48
  9
$PINSBASE
 10
0.0
 20
0.0
 30
0.0
  9
$PLIMCHECK
 70
     0
  9
$PEXTMIN
 10
1.000000E+20
 20
1.000000E+20
 30
1.000000E+20
  9
$PEXTMAX
 10
-1.000000E+20
 20
-1.000000E+20
 30
-1.000000E+20
  9
$PLIMMIN
 10
0.0
 20
0.0
  9
$PLIMMAX
 10
420.0
 20
297.0
  9
$UNITMODE
 70
     0
  9
$VISRETAIN
 70
     1
  9
$PLINEGEN
 70
     0
  9
$PSLTSCALE
 70
     1
  9
$TREEDEPTH
 70
  3020
  9
$PICKSTYLE
 70
     1
  9
$CMLSTYLE
  2
STANDARD
  9
$CMLJUST
 70
     0
  9
$CMLSCALE
 40
20.0
  9
$PROXYGRAPHICS
 70
     1
  9
$MEASUREMENT
 70
     1
  0
ENDSEC
  0
SECTION
  2
CLASSES
  0
CLASS
  1
LWPOLYLINE
  2
AcDbPolyline
  3
"AutoCAD"
 90
        0
280
     0
281
     1
  0
ENDSEC
  0
SECTION
  2
TABLES
  0
TABLE
  2
VPORT
  5
8
100
AcDbSymbolTable
 70
     3
  0
VPORT
  5
1041
100
AcDbSymbolTableRecord
100
AcDbViewportTableRecord
  2
*ACTIVE
 70
     0
 10
0.0
 20
0.0
 11
1.0
 21
1.0
 12
109.958728
 22
72.728828
 13
0.0
 23
0.0
 14
1.0
 24
1.0
 15
10.0
 25
10.0
 16
0.0
 26
0.0
 36
1.0
 17
0.0
 27
0.0
 37
0.0
 40
149.33027
 41
1.650266
 42
50.0
 43
0.0
 44
0.0
 50
0.0
 51
0.0
 71
     0
 72
   100
 73
     1
 74
     1
 75
     0
 76
     1
 77
     0
 78
     0
  0
ENDTAB
  0
TABLE
  2
LTYPE
  5
5
100
AcDbSymbolTable
 70
     1
  0
LTYPE
  5
12
100
AcDbSymbolTableRecord
100
AcDbLinetypeTableRecord
  2
BYBLOCK
 70
     0
  3

 72
    65
 73
     0
 40
0.0
  0
LTYPE
  5
13
100
AcDbSymbolTableRecord
100
AcDbLinetypeTableRecord
  2
BYLAYER
 70
     0
  3

 72
    65
 73
     0
 40
0.0
  0
LTYPE
  5
14
100
AcDbSymbolTableRecord
100
AcDbLinetypeTableRecord
  2
CONTINUOUS
 70
     0
  3
Solid line
 72
    65
 73
     0
 40
0.0
  0
ENDTAB
  0
TABLE
  2
LAYER
  5
2
100
AcDbSymbolTable
 70
     2
  0
LAYER
  5
E
100
AcDbSymbolTableRecord
100
AcDbLayerTableRecord
  2
0
 70
     0
 62
     7
  6
CONTINUOUS
  0
LAYER
  5
56D
100
AcDbSymbolTableRecord
100
AcDbLayerTableRecord
  2
1
 70
     0
 62
     7
  6
CONTINUOUS
  0
ENDTAB
  0
TABLE
  2
STYLE
  5
3
100
AcDbSymbolTable
 70
     1
  0
STYLE
  5
F
100
AcDbSymbolTableRecord
100
AcDbTextStyleTableRecord
  2
STANDARD
 70
     0
 40
0.0
 41
1.0
 50
0.0
 71
     0
 42
2.5
  3
txt
  4

  0
ENDTAB
  0
TABLE
  2
VIEW
  5
6
100
AcDbSymbolTable
 70
     0
  0
ENDTAB
  0
TABLE
  2
UCS
  5
7
100
AcDbSymbolTable
 70
     0
  0
ENDTAB
  0
TABLE
  2
APPID
  5
9
100
AcDbSymbolTable
 70
     3
  0
APPID
  5
10
100
AcDbSymbolTableRecord
100
AcDbRegAppTableRecord
  2
ACAD
 70
     0
  0
APPID
  5
21
100
AcDbSymbolTableRecord
100
AcDbRegAppTableRecord
  2
CONTENTTABDATA
 70
     0
  0
APPID
  5
22
100
AcDbSymbolTableRecord
100
AcDbRegAppTableRecord
  2
CONTENTCURRENTTAB
 70
     0
  0
ENDTAB
  0
TABLE
  2
DIMSTYLE
  5
A
100
AcDbSymbolTable
 70
     1
  0
DIMSTYLE
105
1D
100
AcDbSymbolTableRecord
100
AcDbDimStyleTableRecord
  2
STANDARD
 70
     0
  3

  4

  5

  6

  7

 40
1.0
 41
0.18
 42
0.0625
 43
0.38
 44
0.18
 45
0.0
 46
0.0
 47
0.0
 48
0.0
140
0.18
141
0.09
142
0.0
143
25.4
144
1.0
145
0.0
146
1.0
147
0.09
 71
     0
 72
     0
 73
     1
 74
     1
 75
     0
 76
     0
 77
     0
 78
     0
170
     0
171
     2
172
     0
173
     0
174
     0
175
     0
176
     0
177
     0
178
     0
270
     2
271
     4
272
     4
273
     2
274
     2
340
F
275
     0
280
     0
281
     0
282
     0
283
     1
284
     0
285
     0
286
     0
287
     3
288
     0
  0
ENDTAB
  0
TABLE
  2
BLOCK_RECORD
  5
1
100
AcDbSymbolTable
 70
     0
  0
BLOCK_RECORD
  5
18
100
AcDbSymbolTableRecord
100
AcDbBlockTableRecord
  2
*MODEL_SPACE
  0
BLOCK_RECORD
  5
15
100
AcDbSymbolTableRecord
100
AcDbBlockTableRecord
  2
*PAPER_SPACE
  0
ENDTAB
  0
ENDSEC
  0
SECTION
  2
BLOCKS
  0
BLOCK
  5
19
100
AcDbEntity
  8
0
100
AcDbBlockBegin
  2
*MODEL_SPACE
 70
     0
 10
0.0
 20
0.0
 30
0.0
  3
*MODEL_SPACE
  1

  0
ENDBLK
  5
1A
100
AcDbEntity
  8
0
100
AcDbBlockEnd
  0
BLOCK
  5
16
100
AcDbEntity
 67
     1
  8
0
100
AcDbBlockBegin
  2
*PAPER_SPACE
 70
     0
 10
0.0
 20
0.0
 30
0.0
  3
*PAPER_SPACE
  1

  0
ENDBLK
  5
17
100
AcDbEntity
 67
     1
  8
0
100
AcDbBlockEnd
  0
ENDSEC
  0
SECTION
  2
ENTITIES
  0
LINE
  5
154
100
AcDbEntity
  8
0
100
AcDbLine
 39
36.0
 10
32.400874
 20
93.407615
 30
0.0
 11
32.400874
 21
106.488977
 31
0.0
  0
ARC
  5
156
100
AcDbEntity
  8
0
100
AcDbCircle
 39
36.0
 10
79.911011
 20
123.46361
 30
-514.324699
 40
2.314461
100
AcDbArc
 50
90.0
 51
180.0
  0
LINE
  5
157
100
AcDbEntity
  8
0
100
AcDbLine
 39
36.0
 10
79.911011
 20
125.778071
 30
-514.324699
 11
83.117727
 21
125.778071
 31
-514.324699
  0
ARC
  5
158
100
AcDbEntity
  8
0
100
AcDbCircle
 39
36.0
 10
82.997727
 20
128.092532
 30
-514.324699
 40
2.314461
100
AcDbArc
 50
270.0
 51
360.0
  0
LINE
  5
159
100
AcDbEntity
  8
0
100
AcDbLine
 39
36.0
 10
85.312188
 20
127.972532
 30
-514.324699
 11
85.312188
 21
128.688778
 31
-514.324699
  0
ARC
  5
15A
100
AcDbEntity
  8
0
100
AcDbCircle
 39
36.0
 10
82.997727
 20
128.678814
 30
-514.324699
 40
2.314461
100
AcDbArc
 50
360.0
 51
90.0
  0
LINE
  5
15B
100
AcDbEntity
  8
0
100
AcDbLine
 39
36.0
 10
83.117727
 20
130.993275
 30
-514.324699
 11
77.216422
 21
130.993275
 31
-514.324699
  0
LWPOLYLINE
  5
15C
100
AcDbEntity
  8
0
100
AcDbPolyline
 90
        3
 70
     0
 43
0.0
 38
-514.324699
 39
36.0
 10
85.427195
 20
119.692349
 10
77.59655
 20
119.692349
 10
77.59655
 20
123.46361
  0
LINE
  5
15E
100
AcDbEntity
  8
0
100
AcDbLine
 39
36.0
 10
134.509407
 20
131.025298
 30
-514.324699
 11
140.866866
 21
131.025298
 31
-514.324699
  0
ARC
  5
15F
100
AcDbEntity
  8
0
100
AcDbCircle
 39
36.0
 10
140.866866
 20
128.710837
 30
-514.324699
 40
2.314461
100
AcDbArc
 50
0.0
 51
90.0
  0
LINE
  5
160
100
AcDbEntity
  8
0
100
AcDbLine
 39
36.0
 10
143.181327
 20
128.710837
 30
-514.324699
 11
143.181327
 21
127.896392
 31
-514.324699
  0
ARC
  5
161
100
AcDbEntity
  8
0
100
AcDbCircle
 39
36.0
 10
140.866866
 20
127.896392
 30
-514.324699
 40
2.314461
100
AcDbArc
 50
270.0
 51
360.0
  0
LINE
  5
162
100
AcDbEntity
  8
0
100
AcDbLine
 39
36.0
 10
140.866866
 20
125.58193
 30
-514.324699
 11
134.509407
 21
125.58193
 31
-514.324699
  0
ARC
  5
163
100
AcDbEntity
  8
0
100
AcDbCircle
 39
36.0
 10
140.866866
 20
123.267469
 30
-514.324699
 40
2.314461
100
AcDbArc
 50
0.0
 51
90.0
  0
LINE
  5
164
100
AcDbEntity
  8
0
100
AcDbLine
 39
36.0
 10
143.181327
 20
123.267469
 30
-514.324699
 11
143.181327
 21
121.996698
 31
-514.324699
  0
ARC
  5
165
100
AcDbEntity
  8
0
100
AcDbCircle
 39
36.0
 10
140.866866
 20
121.996698
 30
-514.324699
 40
2.314461
100
AcDbArc
 50
270.0
 51
360.0
  0
LINE
  5
166
100
AcDbEntity
  8
0
100
AcDbLine
 39
36.0
 10
140.866866
 20
119.682236
 30
-514.324699
 11
134.509407
 21
119.682236
 31
-514.324699
  0
LINE
  5
168
100
AcDbEntity
  8
0
100
AcDbLine
 39
36.0
 10
182.164004
 20
98.733412
 30
-514.324699
 11
187.753682
 21
106.232926
 31
-514.324699
  0
LINE
  5
169
100
AcDbEntity
  8
0
100
AcDbLine
 39
36.0
 10
181.403747
 20
98.201031
 30
-514.324699
 11
191.135034
 21
98.201031
 31
-514.324699
  0
LINE
  5
16A
100
AcDbEntity
  8
0
100
AcDbLine
 39
36.0
 10
187.792416
 20
98.201031
 30
-514.324699
 11
187.789904
 21
93.637766
 31
-514.324699
  0
LINE
  5
16B
100
AcDbEntity
  8
0
100
AcDbLine
 39
36.0
 10
187.797105
 20
106.719127
 30
-514.324699
 11
187.793839
 21
100.78734
 31
-514.324699
  0
LWPOLYLINE
  5
34E
100
AcDbEntity
  8
0
 62
   200
100
AcDbPolyline
 90
        8
 70
     1
 43
0.0
 10
10.0
 20
0.0
 10
210.0
 20
0.0
 42
0.414214
 10
220.0
 20
10.0
 10
220.0
 20
135.0
 42
0.414214
 10
210.0
 20
145.0
 10
10.0
 20
145.0
 42
0.414214
 10
0.0
 20
135.0
 10
0.0
 20
10.0
 42
0.414214
  0
LINE
  5
3A4
100
AcDbEntity
  8
0
100
AcDbLine
 39
200.0
 10
110.0
 20
110.0
 30
0.0
 11
110.0
 21
117.519061
 31
0.0
  0
LINE
  5
3A5
100
AcDbEntity
  8
0
100
AcDbLine
 39
200.0
 10
105.093233
 20
109.879546
 30
0.0
 11
104.914175
 21
113.524338
 31
0.0
  0
LINE
  5
3A6
100
AcDbEntity
  8
0
100
AcDbLine
 39
200.0
 10
100.198286
 20
109.518473
 30
0.0
 11
99.840603
 21
113.150089
 31
0.0
  0
LINE
  5
3A7
100
AcDbEntity
  8
0
100
AcDbLine
 39
200.0
 10
95.326953
 20
108.917651
 30
0.0
 11
94.791505
 21
112.527342
 31
0.0
  0
LINE
  5
3A8
100
AcDbEntity
  8
0
100
AcDbLine
 39
200.0
 10
90.490968
 20
108.078528
 30
0.0
 11
89.779047
 21
111.657598
 31
0.0
  0
LINE
  5
3A9
100
AcDbEntity
  8
0
100
AcDbLine
 39
200.0
 10
85.701982
 20
107.003125
 30
0.0
 11
83.874999
 21
114.296849
 31
0.0
  0
LINE
  5
3AA
100
AcDbEntity
  8
0
100
AcDbLine
 39
200.0
 10
80.971532
 20
105.694034
 30
0.0
 11
79.912229
 21
109.186089
 31
0.0
  0
LINE
  5
3AB
100
AcDbEntity
  8
0
100
AcDbLine
 39
200.0
 10
76.311015
 20
104.154407
 30
0.0
 11
75.08164
 21
107.590278
 31
0.0
  0
LINE
  5
3AC
100
AcDbEntity
  8
0
100
AcDbLine
 39
200.0
 10
71.731657
 20
102.387953
 30
0.0
 11
70.335173
 21
105.759363
 31
0.0
  0
LINE
  5
3AD
100
AcDbEntity
  8
0
100
AcDbLine
 39
200.0
 10
67.244491
 20
100.398929
 30
0.0
 11
65.684262
 21
103.697756
 31
0.0
  0
LINE
  5
3AE
100
AcDbEntity
  8
0
100
AcDbLine
 39
200.0
 10
62.860326
 20
98.192126
 30
0.0
 11
59.315866
 21
104.823346
 31
0.0
  0
LINE
  5
3AF
100
AcDbEntity
  8
0
100
AcDbLine
 39
200.0
 10
58.589726
 20
95.772861
 30
0.0
 11
56.713668
 21
98.902874
 31
0.0
  0
LINE
  5
3B0
100
AcDbEntity
  8
0
100
AcDbLine
 39
200.0
 10
54.442977
 20
93.146961
 30
0.0
 11
52.415597
 21
96.18115
 31
0.0
  0
LINE
  5
3B1
100
AcDbEntity
  8
0
100
AcDbLine
 39
200.0
 10
50.43007
 20
90.320753
 30
0.0
 11
48.256251
 21
93.251808
 31
0.0
  0
LINE
  5
3B2
100
AcDbEntity
  8
0
100
AcDbLine
 39
200.0
 10
46.560672
 20
87.301045
 30
0.0
 11
44.245651
 21
90.121906
 31
0.0
  0
LINE
  5
3B3
100
AcDbEntity
  8
0
100
AcDbLine
 39
200.0
 10
42.844105
 20
84.095113
 30
0.0
 11
37.794612
 21
89.666369
 31
0.0
  0
LINE
  5
3B4
100
AcDbEntity
  8
0
100
AcDbLine
 39
200.0
 10
39.289322
 20
80.710678
 30
0.0
 11
36.708956
 21
83.291044
 31
0.0
  0
LINE
  5
3B5
100
AcDbEntity
  8
0
100
AcDbLine
 39
200.0
 10
35.904887
 20
77.155895
 30
0.0
 11
33.201018
 21
79.60654
 31
0.0
  0
LINE
  5
3B6
100
AcDbEntity
  8
0
100
AcDbLine
 39
200.0
 10
32.698955
 20
73.439328
 30
0.0
 11
29.878094
 21
75.754349
 31
0.0
  0
LINE
  5
3B7
100
AcDbEntity
  8
0
100
AcDbLine
 39
200.0
 10
29.679247
 20
69.56993
 30
0.0
 11
26.748192
 21
71.743749
 31
0.0
  0
LINE
  5
3B8
100
AcDbEntity
  8
0
100
AcDbLine
 39
200.0
 10
26.853039
 20
65.557023
 30
0.0
 11
20.601168
 21
69.73439
 31
0.0
  0
LINE
  5
3B9
100
AcDbEntity
  8
0
100
AcDbLine
 39
200.0
 10
24.227139
 20
61.410274
 30
0.0
 11
21.097126
 21
63.286332
 31
0.0
  0
LINE
  5
3BA
100
AcDbEntity
  8
0
100
AcDbLine
 39
200.0
 10
21.807874
 20
57.139674
 30
0.0
 11
18.589577
 21
58.859889
 31
0.0
  0
LINE
  5
3BB
100
AcDbEntity
  8
0
100
AcDbLine
 39
200.0
 10
19.601071
 20
52.755509
 30
0.0
 11
16.302244
 21
54.315738
 31
0.0
  0
LINE
  5
3BC
100
AcDbEntity
  8
0
100
AcDbLine
 39
200.0
 10
17.612047
 20
48.268343
 30
0.0
 11
14.240637
 21
49.664827
 31
0.0
  0
LINE
  5
3BD
100
AcDbEntity
  8
0
100
AcDbLine
 39
200.0
 10
190.320753
 20
69.56993
 30
0.0
 11
193.251808
 21
71.743749
 31
0.0
  0
LINE
  5
3BE
100
AcDbEntity
  8
0
100
AcDbLine
 39
200.0
 10
193.146961
 20
65.557023
 30
0.0
 11
199.398832
 21
69.73439
 31
0.0
  0
LINE
  5
3BF
100
AcDbEntity
  8
0
100
AcDbLine
 39
200.0
 10
202.387953
 20
48.268343
 30
0.0
 11
205.759363
 21
49.664827
 31
0.0
  0
LINE
  5
3C0
100
AcDbEntity
  8
0
100
AcDbLine
 39
200.0
 10
200.398929
 20
52.755509
 30
0.0
 11
203.697756
 21
54.315738
 31
0.0
  0
LINE
  5
3C1
100
AcDbEntity
  8
0
100
AcDbLine
 39
200.0
 10
195.772861
 20
61.410274
 30
0.0
 11
198.902874
 21
63.286332
 31
0.0
  0
LINE
  5
3C2
100
AcDbEntity
  8
0
100
AcDbLine
 39
200.0
 10
198.192126
 20
57.139674
 30
0.0
 11
201.410423
 21
58.859889
 31
0.0
  0
LINE
  5
3C3
100
AcDbEntity
  8
0
100
AcDbLine
 39
200.0
 10
180.710678
 20
80.710678
 30
0.0
 11
183.291044
 21
83.291044
 31
0.0
  0
LINE
  5
3C4
100
AcDbEntity
  8
0
100
AcDbLine
 39
200.0
 10
187.301045
 20
73.439328
 30
0.0
 11
190.121906
 21
75.754349
 31
0.0
  0
LINE
  5
3C5
100
AcDbEntity
  8
0
100
AcDbLine
 39
200.0
 10
184.095113
 20
77.155895
 30
0.0
 11
186.798982
 21
79.60654
 31
0.0
  0
LINE
  5
3C6
100
AcDbEntity
  8
0
100
AcDbLine
 39
200.0
 10
177.155895
 20
84.095113
 30
0.0
 11
182.205388
 21
89.666369
 31
0.0
  0
LINE
  5
3C7
100
AcDbEntity
  8
0
100
AcDbLine
 39
200.0
 10
173.439328
 20
87.301045
 30
0.0
 11
175.754349
 21
90.121906
 31
0.0
  0
LINE
  5
3C8
100
AcDbEntity
  8
0
100
AcDbLine
 39
200.0
 10
152.755509
 20
100.398929
 30
0.0
 11
154.315738
 21
103.697756
 31
0.0
  0
LINE
  5
3C9
100
AcDbEntity
  8
0
100
AcDbLine
 39
200.0
 10
165.557023
 20
93.146961
 30
0.0
 11
167.584403
 21
96.18115
 31
0.0
  0
LINE
  5
3CA
100
AcDbEntity
  8
0
100
AcDbLine
 39
200.0
 10
169.56993
 20
90.320753
 30
0.0
 11
171.743749
 21
93.251808
 31
0.0
  0
LINE
  5
3CB
100
AcDbEntity
  8
0
100
AcDbLine
 39
200.0
 10
157.139674
 20
98.192126
 30
0.0
 11
160.684134
 21
104.823346
 31
0.0
  0
LINE
  5
3CC
100
AcDbEntity
  8
0
100
AcDbLine
 39
200.0
 10
161.410274
 20
95.772861
 30
0.0
 11
163.286332
 21
98.902874
 31
0.0
  0
LINE
  5
3CD
100
AcDbEntity
  8
0
100
AcDbLine
 39
200.0
 10
148.268343
 20
102.387953
 30
0.0
 11
149.664827
 21
105.759363
 31
0.0
  0
LINE
  5
3CE
100
AcDbEntity
  8
0
100
AcDbLine
 39
200.0
 10
143.688985
 20
104.154407
 30
0.0
 11
144.91836
 21
107.590278
 31
0.0
  0
LINE
  5
3CF
100
AcDbEntity
  8
0
100
AcDbLine
 39
200.0
 10
139.028468
 20
105.694034
 30
0.0
 11
140.087771
 21
109.186089
 31
0.0
  0
LINE
  5
3D0
100
AcDbEntity
  8
0
100
AcDbLine
 39
200.0
 10
134.298018
 20
107.003125
 30
0.0
 11
136.125001
 21
114.296849
 31
0.0
  0
LINE
  5
3D1
100
AcDbEntity
  8
0
100
AcDbLine
 39
200.0
 10
129.509032
 20
108.078528
 30
0.0
 11
130.220953
 21
111.657598
 31
0.0
  0
LINE
  5
3D2
100
AcDbEntity
  8
0
100
AcDbLine
 39
200.0
 10
124.673047
 20
108.917651
 30
0.0
 11
125.208495
 21
112.527342
 31
0.0
  0
LINE
  5
3D3
100
AcDbEntity
  8
0
100
AcDbLine
 39
200.0
 10
119.801714
 20
109.518473
 30
0.0
 11
120.159397
 21
113.150089
 31
0.0
  0
LINE
  5
3D4
100
AcDbEntity
  8
0
100
AcDbLine
 39
200.0
 10
114.906767
 20
109.879546
 30
0.0
 11
115.085825
 21
113.524338
 31
0.0
  0
LWPOLYLINE
  5
4A5
100
AcDbEntity
  8
0
 62
   160
100
AcDbPolyline
 90
       10
 70
     1
 43
0.0
 39
10.0
 10
0.0
 20
10.0
 42
0.434607
 10
9.283981
 20
1.783981
 10
210.716019
 20
1.783981
 42
0.414214
 10
218.216019
 20
9.283981
 10
218.216019
 20
135.716019
 42
0.427252
 10
210.0
 20
145.0
 42
-0.414214
 10
220.0
 20
135.0
 10
220.0
 20
10.0
 42
-0.414214
 10
210.0
 20
0.0
 10
10.0
 20
0.0
 42
-0.414214
  0
LWPOLYLINE
  5
4A6
100
AcDbEntity
  8
0
 62
   240
100
AcDbPolyline
 90
       10
 70
     1
 43
0.0
 39
10.0
 10
210.716019
 20
143.216019
 10
9.283981
 20
143.216019
 42
0.414214
 10
1.783981
 20
135.716019
 10
1.783981
 20
9.283981
 42
0.414214
 10
9.283981
 20
1.783981
 42
-0.434607
 10
0.0
 20
10.0
 10
0.0
 20
135.0
 42
-0.414214
 10
10.0
 20
145.0
 10
210.0
 20
145.0
 42
-0.427252
 10
218.216019
 20
135.716019
 42
0.414214
  0
LWPOLYLINE
  5
4C4
100
AcDbEntity
  8
0
 62
   160
100
AcDbPolyline
 90
       10
 70
     1
 43
0.0
 39
10.0
 10
214.648058
 20
135.648058
 42
0.453163
 10
210.432038
 20
141.432038
 10
9.567962
 20
141.432038
 42
0.414214
 10
3.567962
 20
135.432038
 10
3.567962
 20
9.567962
 42
0.346253
 10
9.351942
 20
5.351942
 42
-0.414214
 10
5.351942
 20
9.351942
 10
5.351942
 20
135.648058
 42
-0.414214
 10
9.351942
 20
139.648058
 10
210.648058
 20
139.648058
 42
-0.414214
  0
LWPOLYLINE
  5
4C5
100
AcDbEntity
  8
0
 62
   240
100
AcDbPolyline
 90
       10
 70
     1
 43
0.0
 10
3.567962
 20
9.567962
 42
0.414214
 10
9.567962
 20
3.567962
 10
210.432038
 20
3.567962
 42
0.414214
 10
216.432038
 20
9.567962
 10
216.432038
 20
135.432038
 42
0.414214
 10
210.432038
 20
141.432038
 42
-0.453163
 10
214.648058
 20
135.648058
 10
214.648058
 20
9.351942
 42
-0.414214
 10
210.648058
 20
5.351942
 10
9.351942
 20
5.351942
 42
-0.346253
  0
LWPOLYLINE
  5
573
100
AcDbEntity
  8
1
 62
   200
100
AcDbPolyline
 90
        2
 70
     1
 43
0.0
 39
50.0
 10
208.994949
 20
11.0
 42
0.989949
 10
11.005051
 20
11.0
  0
LINE
  5
8D1
100
AcDbEntity
  8
0
100
AcDbLine
 39
200.0
 10
15.779927
 20
43.504894
 30
0.0
 11
8.695463
 21
46.024147
 31
0.0
  0
LINE
  5
8D2
100
AcDbEntity
  8
0
100
AcDbLine
 39
200.0
 10
204.284401
 20
43.32344
 30
0.0
 11
211.373703
 21
45.82905
 31
0.0
  0
LWPOLYLINE
  5
8D4
100
AcDbEntity
  8
1
 62
     1
100
AcDbPolyline
 90
        3
 70
     1
 43
0.0
 39
600.0
 10
20.30885
 20
41.920906
 10
29.854976
 20
30.669477
 10
34.825937
 20
44.562379
  0
LWPOLYLINE
  5
C35
100
AcDbEntity
  8
1
 62
     1
100
AcDbPolyline
 90
        3
 70
     1
 43
0.0
 39
600.0
 10
21.121474
 20
44.11824
 10
30.38785
 20
32.635319
 10
35.699163
 20
46.401697
  0
LWPOLYLINE
  5
C36
100
AcDbEntity
  8
1
 62
     1
100
AcDbPolyline
 90
        3
 70
     1
 43
0.0
 39
600.0
 10
21.987921
 20
46.294913
 10
30.968936
 20
34.587455
 10
36.617385
 20
48.21897
  0
LWPOLYLINE
  5
C37
100
AcDbEntity
  8
1
 62
     1
100
AcDbPolyline
 90
        3
 70
     1
 43
0.0
 39
600.0
 10
22.907667
 20
48.449606
 10
31.59788
 20
36.5247
 10
37.580045
 20
50.013099
  0
LWPOLYLINE
  5
C38
100
AcDbEntity
  8
1
 62
     1
100
AcDbPolyline
 90
        3
 70
     1
 43
0.0
 39
600.0
 10
23.880154
 20
50.581015
 10
32.274304
 20
38.445883
 10
38.586562
 20
51.782996
  0
LWPOLYLINE
  5
C39
100
AcDbEntity
  8
1
 62
     1
100
AcDbPolyline
 90
        3
 70
     1
 43
0.0
 39
600.0
 10
24.904794
 20
52.68785
 10
32.997797
 20
40.349839
 10
39.636325
 20
53.527591
  0
LWPOLYLINE
  5
C3A
100
AcDbEntity
  8
1
 62
     1
100
AcDbPolyline
 90
        3
 70
     1
 43
0.0
 39
600.0
 10
25.980965
 20
54.768833
 10
33.76792
 20
42.235417
 10
40.728699
 20
55.245826
  0
LWPOLYLINE
  5
C3B
100
AcDbEntity
  8
1
 62
     1
100
AcDbPolyline
 90
        3
 70
     1
 43
0.0
 39
600.0
 10
27.108016
 20
56.822705
 10
34.584209
 20
44.101473
 10
41.863022
 20
56.936661
  0
LWPOLYLINE
  5
C3C
100
AcDbEntity
  8
1
 62
     1
100
AcDbPolyline
 90
        3
 70
     1
 43
0.0
 39
600.0
 10
28.285265
 20
58.848222
 10
35.446167
 20
45.946878
 10
43.038608
 20
58.599073
  0
LWPOLYLINE
  5
C3D
100
AcDbEntity
  8
1
 62
     1
100
AcDbPolyline
 90
        3
 70
     1
 43
0.0
 39
600.0
 10
29.511999
 20
60.844158
 10
36.353274
 20
47.770514
 10
44.254744
 20
60.232054
  0
LWPOLYLINE
  5
C3E
100
AcDbEntity
  8
1
 62
     1
100
AcDbPolyline
 90
        3
 70
     1
 43
0.0
 39
600.0
 10
30.787475
 20
62.809304
 10
37.304979
 20
49.571278
 10
45.510694
 20
61.834615
  0
LWPOLYLINE
  5
C3F
100
AcDbEntity
  8
1
 62
     1
100
AcDbPolyline
 90
        3
 70
     1
 43
0.0
 39
600.0
 10
32.11092
 20
64.742469
 10
38.300707
 20
51.348078
 10
46.805697
 20
63.405786
  0
LWPOLYLINE
  5
C40
100
AcDbEntity
  8
1
 62
     1
100
AcDbPolyline
 90
        3
 70
     1
 43
0.0
 39
600.0
 10
33.481534
 20
66.642484
 10
39.339855
 20
53.099838
 10
48.13897
 20
64.944616
  0
LWPOLYLINE
  5
C41
100
AcDbEntity
  8
1
 62
     1
100
AcDbPolyline
 90
        3
 70
     1
 43
0.0
 39
600.0
 10
34.898485
 20
68.508197
 10
40.421793
 20
54.825498
 10
49.509704
 20
66.450173
  0
LWPOLYLINE
  5
C42
100
AcDbEntity
  8
1
 62
     1
100
AcDbPolyline
 90
        3
 70
     1
 43
0.0
 39
600.0
 10
36.360916
 20
70.338478
 10
41.545867
 20
56.524012
 10
50.91707
 20
67.921544
  0
LWPOLYLINE
  5
C43
100
AcDbEntity
  8
1
 62
     1
100
AcDbPolyline
 90
        3
 70
     1
 43
0.0
 39
600.0
 10
37.867942
 20
72.13222
 10
42.711394
 20
58.194353
 10
52.360216
 20
69.35784
  0
LWPOLYLINE
  5
C44
100
AcDbEntity
  8
1
 62
     1
100
AcDbPolyline
 90
        3
 70
     1
 43
0.0
 39
600.0
 10
39.418649
 20
73.888336
 10
43.917671
 20
59.835508
 10
53.838266
 20
70.758189
  0
LWPOLYLINE
  5
C45
100
AcDbEntity
  8
1
 62
     1
100
AcDbPolyline
 90
        3
 70
     1
 43
0.0
 39
600.0
 10
41.012099
 20
75.605763
 10
45.163965
 20
61.446483
 10
55.350328
 20
72.121745
  0
LWPOLYLINE
  5
C46
100
AcDbEntity
  8
1
 62
     1
100
AcDbPolyline
 90
        3
 70
     1
 43
0.0
 39
600.0
 10
42.647326
 20
77.28346
 10
46.449523
 20
63.026304
 10
56.895484
 20
73.447681
  0
LWPOLYLINE
  5
C47
100
AcDbEntity
  8
1
 62
     1
100
AcDbPolyline
 90
        3
 70
     1
 43
0.0
 39
600.0
 10
44.323341
 20
78.920411
 10
47.773565
 20
64.574013
 10
58.472798
 20
74.735194
  0
LWPOLYLINE
  5
C48
100
AcDbEntity
  8
1
 62
     1
100
AcDbPolyline
 90
        3
 70
     1
 43
0.0
 39
600.0
 10
46.039128
 20
80.515626
 10
49.135291
 20
66.088673
 10
60.081317
 20
75.983505
  0
LWPOLYLINE
  5
C49
100
AcDbEntity
  8
1
 62
     1
100
AcDbPolyline
 90
        3
 70
     1
 43
0.0
 39
600.0
 10
47.793649
 20
82.068138
 10
50.533875
 20
67.569367
 10
61.720066
 20
77.191858
  0
LWPOLYLINE
  5
C4A
100
AcDbEntity
  8
1
 62
     1
100
AcDbPolyline
 90
        3
 70
     1
 43
0.0
 39
600.0
 10
49.58584
 20
83.577007
 10
51.968471
 20
69.015199
 10
63.388051
 20
78.359521
  0
LWPOLYLINE
  5
C4B
100
AcDbEntity
  8
1
 62
     1
100
AcDbPolyline
 90
        3
 70
     1
 43
0.0
 39
600.0
 10
51.414617
 20
85.041319
 10
53.438209
 20
70.425291
 10
65.084264
 20
79.485787
  0
LWPOLYLINE
  5
C4C
100
AcDbEntity
  8
1
 62
     1
100
AcDbPolyline
 90
        3
 70
     1
 43
0.0
 39
600.0
 10
53.278872
 20
86.460188
 10
54.9422
 20
71.798792
 10
66.807678
 20
80.569974
  0
LWPOLYLINE
  5
C4D
100
AcDbEntity
  8
1
 62
     1
100
AcDbPolyline
 90
        3
 70
     1
 43
0.0
 39
600.0
 10
55.177477
 20
87.832754
 10
56.479532
 20
73.134868
 10
68.557247
 20
81.611424
  0
LWPOLYLINE
  5
C4E
100
AcDbEntity
  8
1
 62
     1
100
AcDbPolyline
 90
        3
 70
     1
 43
0.0
 39
600.0
 10
57.10928
 20
89.158186
 10
58.049276
 20
74.432712
 10
70.331913
 20
82.609509
  0
LWPOLYLINE
  5
C4F
100
AcDbEntity
  8
1
 62
     1
100
AcDbPolyline
 90
        3
 70
     1
 43
0.0
 39
600.0
 10
59.073114
 20
90.435682
 10
59.65048
 20
75.691536
 10
72.130602
 20
83.563623
  0
LWPOLYLINE
  5
C50
100
AcDbEntity
  8
1
 62
     1
100
AcDbPolyline
 90
        3
 70
     1
 43
0.0
 39
600.0
 10
61.067787
 20
91.664467
 10
61.282174
 20
76.910579
 10
73.952223
 20
84.473188
  0
LWPOLYLINE
  5
C51
100
AcDbEntity
  8
1
 62
     1
100
AcDbPolyline
 90
        3
 70
     1
 43
0.0
 39
600.0
 10
63.092093
 20
92.843798
 10
62.943371
 20
78.089102
 10
75.795674
 20
85.337653
  0
LWPOLYLINE
  5
C52
100
AcDbEntity
  8
1
 62
     1
100
AcDbPolyline
 90
        3
 70
     1
 43
0.0
 39
600.0
 10
65.144805
 20
93.972961
 10
64.633065
 20
79.226391
 10
77.659839
 20
86.156496
  0
LWPOLYLINE
  5
C53
100
AcDbEntity
  8
1
 62
     1
100
AcDbPolyline
 90
        3
 70
     1
 43
0.0
 39
600.0
 10
67.224681
 20
95.051271
 10
66.350232
 20
80.321759
 10
79.543588
 20
86.92922
  0
LWPOLYLINE
  5
C54
100
AcDbEntity
  8
1
 62
     1
100
AcDbPolyline
 90
        3
 70
     1
 43
0.0
 39
600.0
 10
69.33046
 20
96.078076
 10
68.093832
 20
81.374541
 10
81.445781
 20
87.655357
  0
LWPOLYLINE
  5
C55
100
AcDbEntity
  8
1
 62
     1
100
AcDbPolyline
 90
        3
 70
     1
 43
0.0
 39
600.0
 10
71.460869
 20
97.052754
 10
69.86281
 20
82.384101
 10
83.365266
 20
88.334468
  0
LWPOLYLINE
  5
C56
100
AcDbEntity
  8
1
 62
     1
100
AcDbPolyline
 90
        3
 70
     1
 43
0.0
 39
600.0
 10
73.614615
 20
97.974715
 10
71.656094
 20
83.349826
 10
85.30088
 20
88.966141
  0
LWPOLYLINE
  5
C57
100
AcDbEntity
  8
1
 62
     1
100
AcDbPolyline
 90
        3
 70
     1
 43
0.0
 39
600.0
 10
75.790396
 20
98.8434
 10
73.472598
 20
84.271131
 10
87.251452
 20
89.549993
  0
LWPOLYLINE
  5
C58
100
AcDbEntity
  8
1
 62
     1
100
AcDbPolyline
 90
        3
 70
     1
 43
0.0
 39
600.0
 10
77.986894
 20
99.658283
 10
75.311222
 20
85.14746
 10
89.215799
 20
90.085672
  0
LWPOLYLINE
  5
C59
100
AcDbEntity
  8
1
 62
     1
100
AcDbPolyline
 90
        3
 70
     1
 43
0.0
 39
600.0
 10
80.202778
 20
100.418871
 10
77.170854
 20
85.978281
 10
91.192733
 20
90.572853
  0
LWPOLYLINE
  5
C5A
100
AcDbEntity
  8
1
 62
     1
100
AcDbPolyline
 90
        3
 70
     1
 43
0.0
 39
600.0
 10
82.436706
 20
101.124703
 10
79.050366
 20
86.763091
 10
93.181056
 20
91.01124
  0
LWPOLYLINE
  5
C5B
100
AcDbEntity
  8
1
 62
     1
100
AcDbPolyline
 90
        3
 70
     1
 43
0.0
 39
600.0
 10
84.687327
 20
101.775352
 10
80.94862
 20
87.501415
 10
95.179565
 20
91.400569
  0
LWPOLYLINE
  5
C5C
100
AcDbEntity
  8
1
 62
     1
100
AcDbPolyline
 90
        3
 70
     1
 43
0.0
 39
600.0
 10
86.953276
 20
102.370424
 10
82.864467
 20
88.192806
 10
97.187049
 20
91.740603
  0
LWPOLYLINE
  5
C5D
100
AcDbEntity
  8
1
 62
     1
100
AcDbPolyline
 90
        3
 70
     1
 43
0.0
 39
600.0
 10
89.233182
 20
102.909558
 10
84.796747
 20
88.836845
 10
99.202291
 20
92.031137
  0
LWPOLYLINE
  5
C5E
100
AcDbEntity
  8
1
 62
     1
100
AcDbPolyline
 90
        3
 70
     1
 43
0.0
 39
600.0
 10
91.525663
 20
103.392428
 10
86.74429
 20
89.433142
 10
101.224073
 20
92.271994
  0
LWPOLYLINE
  5
C5F
100
AcDbEntity
  8
1
 62
     1
100
AcDbPolyline
 90
        3
 70
     1
 43
0.0
 39
600.0
 10
93.829333
 20
103.818741
 10
88.705916
 20
89.981336
 10
103.251169
 20
92.463029
  0
LWPOLYLINE
  5
C60
100
AcDbEntity
  8
1
 62
     1
100
AcDbPolyline
 90
        3
 70
     1
 43
0.0
 39
600.0
 10
96.142795
 20
104.18824
 10
90.680437
 20
90.481094
 10
105.282352
 20
92.604126
  0
LWPOLYLINE
  5
C61
100
AcDbEntity
  8
1
 62
     1
100
AcDbPolyline
 90
        3
 70
     1
 43
0.0
 39
600.0
 10
98.464648
 20
104.5007
 10
92.666657
 20
90.932115
 10
107.316392
 20
92.6952
  0
LWPOLYLINE
  5
C62
100
AcDbEntity
  8
1
 62
     1
100
AcDbPolyline
 90
        3
 70
     1
 43
0.0
 39
600.0
 10
100.793488
 20
104.755933
 10
94.663375
 20
91.334126
 10
109.352057
 20
92.736196
  0
LWPOLYLINE
  5
C63
100
AcDbEntity
  8
1
 62
     1
100
AcDbPolyline
 90
        3
 70
     1
 43
0.0
 39
600.0
 10
103.127902
 20
104.953783
 10
96.66938
 20
91.686882
 10
111.388115
 20
92.727088
  0
LWPOLYLINE
  5
C64
100
AcDbEntity
  8
1
 62
     1
100
AcDbPolyline
 90
        3
 70
     1
 43
0.0
 39
600.0
 10
105.466478
 20
105.094132
 10
98.683457
 20
91.99017
 10
113.423332
 20
92.667882
  0
LWPOLYLINE
  5
C65
100
AcDbEntity
  8
1
 62
     1
100
AcDbPolyline
 90
        3
 70
     1
 43
0.0
 39
600.0
 10
107.8078
 20
105.176893
 10
100.704388
 20
92.243806
 10
115.456475
 20
92.558614
  0
LWPOLYLINE
  5
C66
100
AcDbEntity
  8
1
 62
     1
100
AcDbPolyline
 90
        3
 70
     1
 43
0.0
 39
600.0
 10
110.150449
 20
105.202017
 10
102.730948
 20
92.447638
 10
117.486315
 20
92.399351
  0
LWPOLYLINE
  5
C67
100
AcDbEntity
  8
1
 62
     1
100
AcDbPolyline
 90
        3
 70
     1
 43
0.0
 39
600.0
 10
112.493007
 20
105.169489
 10
104.761909
 20
92.60154
 10
119.511621
 20
92.190188
  0
LWPOLYLINE
  5
C68
100
AcDbEntity
  8
1
 62
     1
100
AcDbPolyline
 90
        3
 70
     1
 43
0.0
 39
600.0
 10
114.834055
 20
105.079328
 10
106.796043
 20
92.705421
 10
121.531167
 20
91.931252
  0
LWPOLYLINE
  5
C69
100
AcDbEntity
  8
1
 62
     1
100
AcDbPolyline
 90
        3
 70
     1
 43
0.0
 39
600.0
 10
117.172176
 20
104.931589
 10
108.832118
 20
92.759218
 10
123.543729
 20
91.622701
  0
LWPOLYLINE
  5
C6A
100
AcDbEntity
  8
1
 62
     1
100
AcDbPolyline
 90
        3
 70
     1
 43
0.0
 39
600.0
 10
119.505954
 20
104.726361
 10
110.868899
 20
92.762897
 10
125.54809
 20
91.26472
  0
LWPOLYLINE
  5
C6B
100
AcDbEntity
  8
1
 62
     1
100
AcDbPolyline
 90
        3
 70
     1
 43
0.0
 39
600.0
 10
121.833975
 20
104.463769
 10
112.905154
 20
92.716456
 10
127.543036
 20
90.857528
  0
LWPOLYLINE
  5
C6C
100
AcDbEntity
  8
1
 62
     1
100
AcDbPolyline
 90
        3
 70
     1
 43
0.0
 39
600.0
 10
124.154829
 20
104.143972
 10
114.93965
 20
92.619924
 10
129.527358
 20
90.401369
  0
LWPOLYLINE
  5
C6D
100
AcDbEntity
  8
1
 62
     1
100
AcDbPolyline
 90
        3
 70
     1
 43
0.0
 39
600.0
 10
126.467112
 20
103.767163
 10
116.971155
 20
92.47336
 10
131.499854
 20
89.896522
  0
LWPOLYLINE
  5
C6E
100
AcDbEntity
  8
1
 62
     1
100
AcDbPolyline
 90
        3
 70
     1
 43
0.0
 39
600.0
 10
128.769422
 20
103.333571
 10
118.998438
 20
92.276851
 10
133.459331
 20
89.34329
  0
LWPOLYLINE
  5
C6F
100
AcDbEntity
  8
1
 62
     1
100
AcDbPolyline
 90
        3
 70
     1
 43
0.0
 39
600.0
 10
131.060366
 20
102.843458
 10
121.020272
 20
92.030517
 10
135.404601
 20
88.74201
  0
LWPOLYLINE
  5
C70
100
AcDbEntity
  8
1
 62
     1
100
AcDbPolyline
 90
        3
 70
     1
 43
0.0
 39
600.0
 10
133.338557
 20
102.29712
 10
123.035432
 20
91.734507
 10
137.334486
 20
88.093046
  0
LWPOLYLINE
  5
C71
100
AcDbEntity
  8
1
 62
     1
100
AcDbPolyline
 90
        3
 70
     1
 43
0.0
 39
600.0
 10
135.602614
 20
101.69489
 10
125.042698
 20
91.389
 10
139.247818
 20
87.396789
  0
LWPOLYLINE
  5
C72
100
AcDbEntity
  8
1
 62
     1
100
AcDbPolyline
 90
        3
 70
     1
 43
0.0
 39
600.0
 10
137.851166
 20
101.037131
 10
127.040854
 20
90.994206
 10
141.143439
 20
86.653663
  0
LWPOLYLINE
  5
C73
100
AcDbEntity
  8
1
 62
     1
100
AcDbPolyline
 90
        3
 70
     1
 43
0.0
 39
600.0
 10
140.082853
 20
100.324242
 10
129.028691
 20
90.550363
 10
143.020199
 20
85.864117
  0
LWPOLYLINE
  5
C74
100
AcDbEntity
  8
1
 62
     1
100
AcDbPolyline
 90
        3
 70
     1
 43
0.0
 39
600.0
 10
142.296322
 20
99.556654
 10
131.005005
 20
90.057741
 10
144.876964
 20
85.02863
  0
LWPOLYLINE
  5
C75
100
AcDbEntity
  8
1
 62
     1
100
AcDbPolyline
 90
        3
 70
     1
 43
0.0
 39
600.0
 10
144.490233
 20
98.734832
 10
132.968598
 20
89.516637
 10
146.712607
 20
84.147706
  0
LWPOLYLINE
  5
C76
100
AcDbEntity
  8
1
 62
     1
100
AcDbPolyline
 90
        3
 70
     1
 43
0.0
 39
600.0
 10
146.663257
 20
97.859275
 10
134.918282
 20
88.92738
 10
148.526018
 20
83.221881
  0
LWPOLYLINE
  5
C77
100
AcDbEntity
  8
1
 62
     1
100
AcDbPolyline
 90
        3
 70
     1
 43
0.0
 39
600.0
 10
148.814079
 20
96.930512
 10
136.852877
 20
88.290326
 10
150.316099
 20
82.251713
  0
LWPOLYLINE
  5
C78
100
AcDbEntity
  8
1
 62
     1
100
AcDbPolyline
 90
        3
 70
     1
 43
0.0
 39
600.0
 10
150.941396
 20
95.949105
 10
138.771209
 20
87.605861
 10
152.081765
 20
81.237792
  0
LWPOLYLINE
  5
C79
100
AcDbEntity
  8
1
 62
     1
100
AcDbPolyline
 90
        3
 70
     1
 43
0.0
 39
600.0
 10
153.04392
 20
94.91565
 10
140.672118
 20
86.874399
 10
153.821947
 20
80.18073
  0
LWPOLYLINE
  5
C7A
100
AcDbEntity
  8
1
 62
     1
100
AcDbPolyline
 90
        3
 70
     1
 43
0.0
 39
600.0
 10
155.120377
 20
93.830771
 10
142.554453
 20
86.096384
 10
155.535591
 20
79.081168
  0
LWPOLYLINE
  5
C7B
100
AcDbEntity
  8
1
 62
     1
100
AcDbPolyline
 90
        3
 70
     1
 43
0.0
 39
600.0
 10
157.16951
 20
92.695127
 10
144.417074
 20
85.272286
 10
157.22166
 20
77.939772
  0
LWPOLYLINE
  5
C7C
100
AcDbEntity
  8
1
 62
     1
100
AcDbPolyline
 90
        3
 70
     1
 43
0.0
 39
600.0
 10
159.190079
 20
91.509403
 10
146.258852
 20
84.402606
 10
158.879133
 20
76.757234
  0
LWPOLYLINE
  5
C7D
100
AcDbEntity
  8
1
 62
     1
100
AcDbPolyline
 90
        3
 70
     1
 43
0.0
 39
600.0
 10
161.180858
 20
90.27432
 10
148.078673
 20
83.487868
 10
160.507005
 20
75.534268
  0
LWPOLYLINE
  5
C7E
100
AcDbEntity
  8
1
 62
     1
100
AcDbPolyline
 90
        3
 70
     1
 43
0.0
 39
600.0
 10
163.140644
 20
88.990623
 10
149.875434
 20
82.528628
 10
162.104292
 20
74.271616
  0
LWPOLYLINE
  5
C7F
100
AcDbEntity
  8
1
 62
     1
100
AcDbPolyline
 90
        3
 70
     1
 43
0.0
 39
600.0
 10
165.068249
 20
87.659092
 10
151.648047
 20
81.525466
 10
163.670025
 20
72.970043
  0
LWPOLYLINE
  5
C80
100
AcDbEntity
  8
1
 62
     1
100
AcDbPolyline
 90
        3
 70
     1
 43
0.0
 39
600.0
 10
166.962506
 20
86.280532
 10
153.395439
 20
80.478989
 10
165.203256
 20
71.630337
  0
LWPOLYLINE
  5
C81
100
AcDbEntity
  8
1
 62
     1
100
AcDbPolyline
 90
        3
 70
     1
 43
0.0
 39
600.0
 10
168.822267
 20
84.855778
 10
155.116552
 20
79.389832
 10
166.703058
 20
70.253308
  0
LWPOLYLINE
  5
C82
100
AcDbEntity
  8
1
 62
     1
100
AcDbPolyline
 90
        3
 70
     1
 43
0.0
 39
600.0
 10
170.646407
 20
83.385693
 10
156.810343
 20
78.258654
 10
168.168521
 20
68.839791
  0
LWPOLYLINE
  5
C83
100
AcDbEntity
  8
1
 62
     1
100
AcDbPolyline
 90
        3
 70
     1
 43
0.0
 39
600.0
 10
172.433821
 20
81.871168
 10
158.475787
 20
77.08614
 10
169.598759
 20
67.390642
  0
LWPOLYLINE
  5
C84
100
AcDbEntity
  8
1
 62
     1
100
AcDbPolyline
 90
        3
 70
     1
 43
0.0
 39
600.0
 10
174.183425
 20
80.313118
 10
160.111875
 20
75.873
 10
170.992905
 20
65.906738
  0
LWPOLYLINE
  5
C85
100
AcDbEntity
  8
1
 62
     1
100
AcDbPolyline
 90
        3
 70
     1
 43
0.0
 39
600.0
 10
175.894162
 20
78.712488
 10
161.717616
 20
74.619968
 10
172.350115
 20
64.388979
  0
LWPOLYLINE
  5
C86
100
AcDbEntity
  8
1
 62
     1
100
AcDbPolyline
 90
        3
 70
     1
 43
0.0
 39
600.0
 10
177.564995
 20
77.070248
 10
163.292038
 20
73.327804
 10
173.669567
 20
62.838282
  0
LWPOLYLINE
  5
C87
100
AcDbEntity
  8
1
 62
     1
100
AcDbPolyline
 90
        3
 70
     1
 43
0.0
 39
600.0
 10
179.194912
 20
75.387391
 10
164.834187
 20
71.99729
 10
174.950462
 20
61.255588
  0
LWPOLYLINE
  5
C88
100
AcDbEntity
  8
1
 62
     1
100
AcDbPolyline
 90
        3
 70
     1
 43
0.0
 39
600.0
 10
180.782925
 20
73.664937
 10
166.34313
 20
70.629232
 10
176.192025
 20
59.641855
  0
LWPOLYLINE
  5
C89
100
AcDbEntity
  8
1
 62
     1
100
AcDbPolyline
 90
        3
 70
     1
 43
0.0
 39
600.0
 10
182.328074
 20
71.903928
 10
167.817953
 20
69.224458
 10
177.393503
 20
57.998059
  0
LWPOLYLINE
  5
C8A
100
AcDbEntity
  8
1
 62
     1
100
AcDbPolyline
 90
        3
 70
     1
 43
0.0
 39
600.0
 10
183.829423
 20
70.105432
 10
169.257762
 20
67.783819
 10
178.554169
 20
56.325197
  0
LWPOLYLINE
  5
C8B
100
AcDbEntity
  8
1
 62
     1
100
AcDbPolyline
 90
        3
 70
     1
 43
0.0
 39
600.0
 10
185.286062
 20
68.270537
 10
170.661686
 20
66.308187
 10
179.673319
 20
54.624281
  0
LWPOLYLINE
  5
C8C
100
AcDbEntity
  8
1
 62
     1
100
AcDbPolyline
 90
        3
 70
     1
 43
0.0
 39
600.0
 10
186.697109
 20
66.400355
 10
172.028875
 20
64.798456
 10
180.750277
 20
52.896342
  0
LWPOLYLINE
  5
C8D
100
AcDbEntity
  8
1
 62
     1
100
AcDbPolyline
 90
        3
 70
     1
 43
0.0
 39
600.0
 10
188.061711
 20
64.496018
 10
173.3585
 20
63.25554
 10
181.784391
 20
51.142425
  0
LWPOLYLINE
  5
C8E
100
AcDbEntity
  8
1
 62
     1
100
AcDbPolyline
 90
        3
 70
     1
 43
0.0
 39
600.0
 10
189.379039
 20
62.558679
 10
174.649756
 20
61.680374
 10
182.775033
 20
49.363594
  0
LWPOLYLINE
  5
C8F
100
AcDbEntity
  8
1
 62
     1
100
AcDbPolyline
 90
        3
 70
     1
 43
0.0
 39
600.0
 10
190.648298
 20
60.589512
 10
175.901862
 20
60.073911
 10
183.721604
 20
47.560924
  0
LWPOLYLINE
  5
C90
100
AcDbEntity
  8
1
 62
     1
100
AcDbPolyline
 90
        3
 70
     1
 43
0.0
 39
600.0
 10
191.868717
 20
58.589709
 10
177.11406
 20
58.437125
 10
184.62353
 20
45.735509
  0
LWPOLYLINE
  5
C91
100
AcDbEntity
  8
1
 62
     1
100
AcDbPolyline
 90
        3
 70
     1
 43
0.0
 39
600.0
 10
193.039558
 20
56.560481
 10
178.285614
 20
56.771006
 10
185.480267
 20
43.888453
  0
LWPOLYLINE
  5
C92
100
AcDbEntity
  8
1
 62
     1
100
AcDbPolyline
 90
        3
 70
     1
 43
0.0
 39
600.0
 10
194.160113
 20
54.503057
 10
179.415816
 20
55.076563
 10
186.291294
 20
42.020875
  0
LWPOLYLINE
  5
C93
100
AcDbEntity
  8
1
 62
     1
100
AcDbPolyline
 90
        3
 70
     1
 43
0.0
 39
600.0
 10
195.229701
 20
52.418683
 10
180.503981
 20
53.354823
 10
187.05612
 20
40.133905
  0
LWPOLYLINE
  5
C94
100
AcDbEntity
  8
1
 62
     1
100
AcDbPolyline
 90
        3
 70
     1
 43
0.0
 39
600.0
 10
196.247677
 20
50.308621
 10
181.549451
 20
51.606828
 10
187.774283
 20
38.228687
  0
LWPOLYLINE
  5
C95
100
AcDbEntity
  8
1
 62
     1
100
AcDbPolyline
 90
        3
 70
     1
 43
0.0
 39
600.0
 10
197.213422
 20
48.174149
 10
182.551591
 20
49.833637
 10
188.445347
 20
36.306375
  0
LWPOLYLINE
  5
C96
100
AcDbEntity
  8
1
 62
     1
100
AcDbPolyline
 90
        3
 70
     1
 43
0.0
 39
600.0
 10
198.126353
 20
46.016559
 10
183.509796
 20
48.036324
 10
189.068907
 20
34.368132
  0
LWPOLYLINE
  5
C97
100
AcDbEntity
  8
1
 62
     1
100
AcDbPolyline
 90
        3
 70
     1
 43
0.0
 39
600.0
 10
198.985917
 20
43.837158
 10
184.423485
 20
46.215976
 10
189.644584
 20
32.415132
  0
LWPOLYLINE
  5
C98
100
AcDbEntity
  8
1
 62
     1
100
AcDbPolyline
 90
        3
 70
     1
 43
0.0
 39
600.0
 10
199.791592
 20
41.637267
 10
185.292104
 20
44.373697
 10
190.17203
 20
30.448557
  0
ENDSEC
  0
SECTION
  2
OBJECTS
  0
DICTIONARY
  5
C
100
AcDbDictionary
  3
ACAD_GROUP
350
D
  3
ACAD_MLINESTYLE
350
1B
  3
CONTENTDICTIONARY
350
20
  0
DICTIONARY
  5
D
102
{ACAD_REACTORS
330
C
102
}
100
AcDbDictionary
  0
DICTIONARY
  5
1B
102
{ACAD_REACTORS
330
C
102
}
100
AcDbDictionary
  3
STANDARD
350
1C
  0
DICTIONARY
  5
20
102
{ACAD_REACTORS
330
C
102
}
100
AcDbDictionary
  0
MLINESTYLE
  5
1C
102
{ACAD_REACTORS
330
1B
102
}
100
AcDbMlineStyle
  2
STANDARD
 70
     0
  3

 62
   256
 51
90.0
 52
90.0
 71
     2
 49
0.5
 62
   256
  6
BYLAYER
 49
-0.5
 62
   256
  6
BYLAYER
  0
ENDSEC
  0
EOF
